<svg width="100%" height="100%" viewBox="0 0 20 20" fill="none" xmlns="http://www.w3.org/2000/svg">
<path fill-rule="evenodd" clip-rule="evenodd" d="M6.1 19.212C7.31667 19.7373 8.61667 20 10 20C11.3833 20 12.6833 19.7373 13.9 19.212C15.1167 18.6873 16.175 17.975 17.075 17.075C17.975 16.175 18.6873 15.1167 19.212 13.9C19.7373 12.6833 20 11.3833 20 10C20 8.61667 19.7373 7.31667 19.212 6.1C18.6873 4.88333 17.975 3.825 17.075 2.925C16.175 2.025 15.1167 1.31233 13.9 0.787C12.6833 0.262333 11.3833 0 10 0C8.61667 0 7.31667 0.262333 6.1 0.787C4.88333 1.31233 3.825 2.025 2.925 2.925C2.025 3.825 1.31267 4.88333 0.788 6.1C0.262667 7.31667 0 8.61667 0 10C0 11.3833 0.262667 12.6833 0.788 13.9C1.31267 15.1167 2.025 16.175 2.925 17.075C3.825 17.975 4.88333 18.6873 6.1 19.212ZM10 12.8C9.86667 12.8 9.75 12.75 9.65 12.65L6.85 9.85C6.7 9.7 6.66267 9.52067 6.738 9.312C6.81267 9.104 6.96667 9 7.2 9H12.8C13.0333 9 13.1873 9.104 13.262 9.312C13.3373 9.52067 13.3 9.7 13.15 9.85L10.35 12.65C10.25 12.75 10.1333 12.8 10 12.8Z" fill="#6D6A8E" fill-opacity="0.965226"/>
</svg>
