<svg width="32" height="32" viewBox="0 0 32 32" fill="none" xmlns="http://www.w3.org/2000/svg">
<circle cx="16" cy="16" r="16" fill="#6D6A8E" fill-opacity="0.965226"/>
<path fill-rule="evenodd" clip-rule="evenodd" d="M11.5479 10.574L20.5218 10.574C20.8393 10.574 21.1566 10.6206 21.4881 10.7752C21.8856 10.9604 22.0963 11.2524 22.244 11.4684C22.2554 11.4852 22.2662 11.5025 22.2761 11.5202C22.4497 11.8292 22.5392 12.1629 22.5392 12.5218C22.5392 12.8628 22.4581 13.2344 22.2761 13.5582C22.2744 13.5613 22.2726 13.5644 22.2709 13.5675L16.6013 23.3066C16.4762 23.5214 16.2461 23.6531 15.9976 23.6523C15.7491 23.6514 15.5199 23.518 15.3964 23.3023L9.83092 13.584C9.82932 13.5813 9.82772 13.5787 9.82612 13.576C9.69875 13.3661 9.50178 13.0416 9.46732 12.6227C9.43567 12.2375 9.52224 11.8516 9.71578 11.5169C9.90932 11.1823 10.2007 10.9147 10.5512 10.7509C10.9269 10.5753 11.3077 10.574 11.5479 10.574ZM15.3044 11.9653H11.5479C11.3011 11.9653 11.2064 11.9805 11.1401 12.0115C11.0485 12.0542 10.9716 12.1245 10.9202 12.2135C10.8688 12.3024 10.8455 12.4055 10.854 12.5087C10.8588 12.5679 10.8829 12.6355 11.0252 12.8701C11.0281 12.875 11.031 12.88 11.0339 12.8849L15.3044 20.342V11.9653ZM16.6957 11.9653V20.3789L21.0652 12.8731C21.1145 12.7835 21.1479 12.654 21.1479 12.5218C21.1479 12.4145 21.1257 12.3214 21.076 12.2254C21.0238 12.1504 20.992 12.1107 20.9654 12.0835C20.9426 12.0602 20.9251 12.0477 20.9003 12.0362C20.797 11.988 20.6913 11.9653 20.5218 11.9653H16.6957Z" fill="white"/>
</svg>
