<?xml version="1.0" encoding="UTF-8"?>
<svg id="Layer_1" data-name="Layer 1" xmlns="http://www.w3.org/2000/svg" xmlns:xlink="http://www.w3.org/1999/xlink" viewBox="0 0 500 102">
  <defs>
    <style>
      .cls-1 {
        fill: #fff;
      }

      .cls-2 {
        fill: url(#radial-gradient-10);
      }

      .cls-3 {
        fill: url(#radial-gradient-17);
      }

      .cls-4 {
        fill: url(#radial-gradient-11);
      }

      .cls-5 {
        fill: url(#radial-gradient-16);
      }

      .cls-6 {
        fill: url(#radial-gradient-15);
      }

      .cls-7 {
        fill: url(#radial-gradient-12);
      }

      .cls-8 {
        fill: url(#radial-gradient-14);
      }

      .cls-9 {
        fill: url(#radial-gradient-13);
      }

      .cls-10 {
        fill: url(#radial-gradient-6);
      }

      .cls-11 {
        fill: url(#radial-gradient-5);
      }

      .cls-12 {
        fill: url(#radial-gradient-3);
      }

      .cls-13 {
        fill: url(#radial-gradient-4);
      }

      .cls-14 {
        fill: url(#radial-gradient-9);
      }

      .cls-15 {
        fill: url(#radial-gradient-8);
      }

      .cls-16 {
        fill: url(#radial-gradient-7);
      }

      .cls-17 {
        fill: url(#radial-gradient-2);
      }

      .cls-18 {
        fill: url(#radial-gradient);
      }
    </style>
    <radialGradient id="radial-gradient" cx="181.03947631" cy="51.92209566" fx="181.03947631" fy="51.92209566" r="20.19036017" gradientUnits="userSpaceOnUse">
      <stop offset="0" stop-color="#302e3b"/>
      <stop offset="1" stop-color="#0d0b08"/>
    </radialGradient>
    <radialGradient id="radial-gradient-2" cx="235.48505046" cy="51.9504205" fx="235.48505046" fy="51.9504205" r="18.31179878" xlink:href="#radial-gradient"/>
    <radialGradient id="radial-gradient-3" cx="132.84582966" cy="51.9504205" fx="132.84582966" fy="51.9504205" r="17.38769548" xlink:href="#radial-gradient"/>
    <radialGradient id="radial-gradient-4" cx="821.1204956" cy="390.73733098" fx="821.1204956" fy="390.73733098" r="1.70790176" gradientTransform="translate(-706.81795675 -341.88249662) scale(.90243143 .97045231)" xlink:href="#radial-gradient"/>
    <radialGradient id="radial-gradient-5" cx="822.99850423" cy="396.96819475" fx="822.99850423" fy="396.96819475" r=".78741275" gradientTransform="translate(-706.81795675 -341.88249662) scale(.90243143 .97045231)" xlink:href="#radial-gradient"/>
    <radialGradient id="radial-gradient-6" cx="823.83865001" cy="386.89155364" fx="823.83865001" fy="386.89155364" r=".06877309" gradientTransform="translate(-706.81795675 -341.88249662) scale(.90243143 .97045231)" xlink:href="#radial-gradient"/>
    <radialGradient id="radial-gradient-7" cx="836.84194722" cy="418.05278255" fx="836.84194722" fy="418.05278255" r="7.95778309" gradientTransform="translate(-706.81795675 -341.88249662) scale(.90243143 .97045231)" xlink:href="#radial-gradient"/>
    <radialGradient id="radial-gradient-8" cx="842.72029505" cy="397.44196701" fx="842.72029505" fy="397.44196701" r="16.04815727" gradientTransform="translate(-706.81795675 -341.88249662) scale(.90243143 .97045231)" xlink:href="#radial-gradient"/>
    <radialGradient id="radial-gradient-9" cx="822.99850423" cy="396.96819475" fx="822.99850423" fy="396.96819475" r=".78741275" gradientTransform="translate(-706.81795675 -341.88249662) scale(.90243143 .97045231)" xlink:href="#radial-gradient"/>
    <radialGradient id="radial-gradient-10" cx="823.83865001" cy="386.89155364" fx="823.83865001" fy="386.89155364" r=".06877309" gradientTransform="translate(-706.81795675 -341.88249662) scale(.90243143 .97045231)" xlink:href="#radial-gradient"/>
    <radialGradient id="radial-gradient-11" cx="836.84194722" cy="418.05278255" fx="836.84194722" fy="418.05278255" r="7.95778309" gradientTransform="translate(-706.81795675 -341.88249662) scale(.90243143 .97045231)" xlink:href="#radial-gradient"/>
    <radialGradient id="radial-gradient-12" cx="879.30088732" cy="400.7987612" fx="879.30088732" fy="400.7987612" r="8.0245482" gradientTransform="translate(-706.81795675 -341.88249662) scale(.90243143 .97045231)" xlink:href="#radial-gradient"/>
    <radialGradient id="radial-gradient-13" cx="873.42658814" cy="398.03495361" fx="873.42658814" fy="398.03495361" r="9.71138965" gradientTransform="translate(-706.81795675 -341.88249662) scale(.90243143 .97045231)" xlink:href="#radial-gradient"/>
    <radialGradient id="radial-gradient-14" cx="867.54062674" cy="407.57102513" fx="867.54062674" fy="407.57102513" r="8.05002389" gradientTransform="translate(-706.81795675 -341.88249662) scale(.90243143 .97045231)" xlink:href="#radial-gradient"/>
    <radialGradient id="radial-gradient-15" cx="848.9665504" cy="425.11099639" fx="848.9665504" fy="425.11099639" r="8.01703805" gradientTransform="translate(-706.81795675 -341.88249662) scale(.90243143 .97045231)" xlink:href="#radial-gradient"/>
    <radialGradient id="radial-gradient-16" cx="816.98800974" cy="409.94967679" fx="816.98800974" fy="409.94967679" r="15.97085394" gradientTransform="translate(-706.81795675 -341.88249662) scale(.90243143 .97045231)" xlink:href="#radial-gradient"/>
    <radialGradient id="radial-gradient-17" cx="823.09836551" cy="397.70089645" fx="823.09836551" fy="397.70089645" r="18.6409193" gradientTransform="translate(-706.81795675 -341.88249662) scale(.90243143 .97045231)" xlink:href="#radial-gradient"/>
  </defs>
  <g>
    <path class="cls-1" d="m203.69071369,50.90392871c-.1447842-3.12529856-.87181717-6.03973125-2.18111812-8.74327885-1.30928174-2.7004164-3.03716404-5.02944991-5.17734609-6.98079971-2.14333246-1.954481-4.62028136-3.4557646-7.43086591-4.51326361-2.47379849-.92846684-5.06719715-1.39111545-7.78649678-1.39111545-.37138289,0-.74591619.0062816-1.12044949.02516483-3.20398187.25178273-6.15933141,1.04176619-8.8597286,2.37310077-2.7004164,1.33131537-5.0231491,3.06234808-6.96504768,5.19309812-1.9419178,2.13073083-3.42744937,4.5762141-4.45348274,7.33328017-1.02918377,2.76021648-1.46979876,5.69038199-1.32816497,8.79679733.14476499,3.12844897.87179796,6.03658084,2.18424931,8.73069643,1.30928174,2.69096518,3.04031445,5.00739707,5.18994772,6.94931486,2.15276446,1.94189859,4.62971336,3.44003178,7.4308467,4.49753079,2.46121608.92846684,5.05146433,1.39111545,7.76761355,1.39111545.37138289,0,.74591619-.00630081,1.1235999-.02518404,2.11814842-.09756653,4.13244871-.46894942,6.03973125-1.11414868,1.91043295-.64519926,3.6792321-1.51071561,5.30954788-2.59654906,1.63031577-1.08268304,3.09698333-2.35419833,4.39996426-3.80511387,1.30300014-1.45093474,2.40771681-3.03718325,3.3046988-4.75878395.90015161-1.7247319,1.5736661-3.54387992,2.0206011-5.46061367.4500662-1.91673376.62631603-3.88381638.53189991-5.90124787Zm-2.93646632,5.34103272c-.39656693,1.70584867-1.00399974,3.34559645-1.8034152,4.8752145-.79943467,1.52959884-1.79398319,2.96163114-2.95534954,4.25518006-1.15821594,1.29041773-2.48324971,2.43605125-3.93101484,3.39913414-1.44463393.95993248-3.03403285,1.74046471-4.73044951,2.31328148-1.68066463.56651595-3.48409904.9001324-5.36304714.98511651-.33676685.01573282-.67668411.02518404-1.01030055.02518404-2.40456641,0-4.7241487-.41545015-6.89579639-1.23691846-2.49898253-.94104925-4.73675032-2.29439825-6.64716406-4.01913015-1.90415135-1.71845029-3.46206541-3.80198267-4.62658217-6.19709786-1.15508475-2.37310077-1.80656561-4.98538265-1.93246658-7.76133195-.12903217-2.75704687.26438436-5.38823118,1.17079836-7.82111282.91273402-2.44863367,2.2471998-4.64546539,3.96565009-6.5307143,1.7247319-1.89470013,3.82086589-3.4557646,6.2317139-4.64231499,2.39511519-1.18024957,5.05776514-1.89470013,7.92182976-2.12444923.32103403-.01258241.64834966-.01888322.96938369-.01888322,2.40456641,0,4.73358071.41545015,6.91469882,1.23374884,2.50526413.94104925,4.73673111,2.29441746,6.63456244,4.02545017,1.89785053,1.73103271,3.45263341,3.8271475,4.62028136,6.2317139,1.15508475,2.38881438,1.80971601,5.00739707,1.93561698,7.78334637.08183371,1.77825037-.0755329,3.53444791-.46894942,5.22458297Zm-9.8322627-14.38331197c-1.22746724-1.29356813-2.69411559-2.31958229-4.35591621-3.05921688-1.68066463-.74276579-3.54074872-1.1235999-5.52671457-1.1235999-1.77194956,0-3.50613268.33676685-5.15218127.99771814-1.6523494.66408248-3.13159938,1.62401496-4.39996426,2.8514822-1.2683841,1.23059844-2.29441746,2.74131405-3.04976567,4.48494838-.75851782,1.75619753-1.14563353,3.754765-1.14563353,5.93901431,0,1.93246658.34619886,3.78308024,1.02288296,5.49522972.6798153,1.71845029,1.63661658,3.23861712,2.84833179,4.52271483,1.21801602,1.29356813,2.68153318,2.32903351,4.35591621,3.07810011,1.69326626.75849861,3.55018073,1.14248312,5.52041375,1.14248312.71445056,0,1.51701642-.08183371,2.44548326-.25493314.94104925-.17624983,1.91986495-.47840064,2.91128228-.8938508.99769893-.41858135,1.99539785-.98196611,2.96478155-1.67123263,1.02918377-.73331457,1.95450021-1.64289818,2.75391567-2.706698.80256587-1.07325104,1.45406594-2.34791673,1.93874818-3.78624985.48470145-1.44146431.73333378-3.10011453.73333378-4.92556336,0-1.94504899-.33676685-3.80198267-1.00084933-5.52356416-.67038329-1.73733352-1.63346618-3.27323317-2.86406461-4.56678209Zm.78998345,14.22907656c-.39971734,1.1960016-.92531643,2.22516617-1.5736661,3.09068252-.65150007.86551635-1.38798426,1.58939892-2.20943335,2.17796771-.8245995.58539918-1.6523494,1.0543486-2.48640012,1.40369786-.83403151.35249967-1.63974778.5980008-2.41084801.74276579-.77110023.1447842-1.43518271.21716669-1.99226666.21716669-1.62716537,0-3.13159938-.31158281-4.51013241-.92844763-1.38166423-.61688403-2.57136502-1.45721634-3.56906395-2.51786576-.99769893-1.06066862-1.78140078-2.30699988-2.34791673-3.73903218-.56651595-1.42890111-.84978353-2.95849995-.84978353-4.58566531,0-1.85378327.31473322-3.50613268.94419966-4.96019861.62633524-1.45091553,1.46036675-2.68153318,2.50213294-3.69181452,1.03861578-1.00715014,2.23774858-1.78455119,3.59739839-2.33218391,1.35964981-.54448232,2.76964849-.81829869,4.23316564-.81829869,1.64604859,0,3.15678341.305282,4.52586523.91271481s2.55878261,1.44148352,3.56908316,2.50213294c1.00713093,1.06064941,1.79083279,2.31330069,2.34789752,3.754765.55393354,1.44148352.83405072,2.98368398.83405072,4.63288298,0,1.56421488-.20143387,2.94589832-.6042824,4.13873031Zm2.07408116-9.66229447c-.67038329-1.73733352-1.63346618-3.27323317-2.86406461-4.56678209-1.22746724-1.29356813-2.69411559-2.31958229-4.35591621-3.05921688-1.68066463-.74276579-3.54074872-1.1235999-5.52671457-1.1235999-1.77194956,0-3.50613268.33676685-5.15218127.99771814-1.6523494.66408248-3.13159938,1.62401496-4.39996426,2.8514822-1.2683841,1.23059844-2.29441746,2.74131405-3.04976567,4.48494838-.75851782,1.75619753-1.14563353,3.754765-1.14563353,5.93901431,0,1.93246658.34619886,3.78308024,1.02288296,5.49522972.6798153,1.71845029,1.63661658,3.23861712,2.84833179,4.52271483,1.21801602,1.29356813,2.68153318,2.32903351,4.35591621,3.07810011,1.69326626.75849861,3.55018073,1.14248312,5.52041375,1.14248312.71445056,0,1.51701642-.08183371,2.44548326-.25493314.94104925-.17624983,1.91986495-.47840064,2.91128228-.8938508.99769893-.41858135,1.99539785-.98196611,2.96478155-1.67123263,1.02918377-.73331457,1.95450021-1.64289818,2.75391567-2.706698.80256587-1.07325104,1.45406594-2.34791673,1.93874818-3.78624985.48470145-1.44146431.73333378-3.10011453.73333378-4.92556336,0-1.94504899-.33676685-3.80198267-1.00084933-5.52356416Zm-2.07408116,9.66229447c-.39971734,1.1960016-.92531643,2.22516617-1.5736661,3.09068252-.65150007.86551635-1.38798426,1.58939892-2.20943335,2.17796771-.8245995.58539918-1.6523494,1.0543486-2.48640012,1.40369786-.83403151.35249967-1.63974778.5980008-2.41084801.74276579-.77110023.1447842-1.43518271.21716669-1.99226666.21716669-1.62716537,0-3.13159938-.31158281-4.51013241-.92844763-1.38166423-.61688403-2.57136502-1.45721634-3.56906395-2.51786576-.99769893-1.06066862-1.78140078-2.30699988-2.34791673-3.73903218-.56651595-1.42890111-.84978353-2.95849995-.84978353-4.58566531,0-1.85378327.31473322-3.50613268.94419966-4.96019861.62633524-1.45091553,1.46036675-2.68153318,2.50213294-3.69181452,1.03861578-1.00715014,2.23774858-1.78455119,3.59739839-2.33218391,1.35964981-.54448232,2.76964849-.81829869,4.23316564-.81829869,1.64604859,0,3.15678341.305282,4.52586523.91271481s2.55878261,1.44148352,3.56908316,2.50213294c1.00713093,1.06064941,1.79083279,2.31330069,2.34789752,3.754765.55393354,1.44148352.83405072,2.98368398.83405072,4.63288298,0,1.56421488-.20143387,2.94589832-.6042824,4.13873031Zm2.07408116-9.66229447c-.67038329-1.73733352-1.63346618-3.27323317-2.86406461-4.56678209-1.22746724-1.29356813-2.69411559-2.31958229-4.35591621-3.05921688-1.68066463-.74276579-3.54074872-1.1235999-5.52671457-1.1235999-1.77194956,0-3.50613268.33676685-5.15218127.99771814-1.6523494.66408248-3.13159938,1.62401496-4.39996426,2.8514822-1.2683841,1.23059844-2.29441746,2.74131405-3.04976567,4.48494838-.75851782,1.75619753-1.14563353,3.754765-1.14563353,5.93901431,0,1.93246658.34619886,3.78308024,1.02288296,5.49522972.6798153,1.71845029,1.63661658,3.23861712,2.84833179,4.52271483,1.21801602,1.29356813,2.68153318,2.32903351,4.35591621,3.07810011,1.69326626.75849861,3.55018073,1.14248312,5.52041375,1.14248312.71445056,0,1.51701642-.08183371,2.44548326-.25493314.94104925-.17624983,1.91986495-.47840064,2.91128228-.8938508.99769893-.41858135,1.99539785-.98196611,2.96478155-1.67123263,1.02918377-.73331457,1.95450021-1.64289818,2.75391567-2.706698.80256587-1.07325104,1.45406594-2.34791673,1.93874818-3.78624985.48470145-1.44146431.73333378-3.10011453.73333378-4.92556336,0-1.94504899-.33676685-3.80198267-1.00084933-5.52356416Zm-2.07408116,9.66229447c-.39971734,1.1960016-.92531643,2.22516617-1.5736661,3.09068252-.65150007.86551635-1.38798426,1.58939892-2.20943335,2.17796771-.8245995.58539918-1.6523494,1.0543486-2.48640012,1.40369786-.83403151.35249967-1.63974778.5980008-2.41084801.74276579-.77110023.1447842-1.43518271.21716669-1.99226666.21716669-1.62716537,0-3.13159938-.31158281-4.51013241-.92844763-1.38166423-.61688403-2.57136502-1.45721634-3.56906395-2.51786576-.99769893-1.06066862-1.78140078-2.30699988-2.34791673-3.73903218-.56651595-1.42890111-.84978353-2.95849995-.84978353-4.58566531,0-1.85378327.31473322-3.50613268.94419966-4.96019861.62633524-1.45091553,1.46036675-2.68153318,2.50213294-3.69181452,1.03861578-1.00715014,2.23774858-1.78455119,3.59739839-2.33218391,1.35964981-.54448232,2.76964849-.81829869,4.23316564-.81829869,1.64604859,0,3.15678341.305282,4.52586523.91271481s2.55878261,1.44148352,3.56908316,2.50213294c1.00713093,1.06064941,1.79083279,2.31330069,2.34789752,3.754765.55393354,1.44148352.83405072,2.98368398.83405072,4.63288298,0,1.56421488-.20143387,2.94589832-.6042824,4.13873031Z"/>
    <path class="cls-18" d="m201.2231968,51.02037846c-.12590097-2.7759493-.78053224-5.39453199-1.93561698-7.78334637-1.16764795-2.40456641-2.72243082-4.5006812-4.62028136-6.2317139-1.89783132-1.73103271-4.1292983-3.08440092-6.63456244-4.02545017-2.18111812-.81829869-4.51013241-1.23374884-6.91469882-1.23374884-.32103403,0-.64834966.00630081-.96938369.01888322-2.86406461.2297491-5.52671457.94419966-7.92182976,2.12444923-2.41084801,1.18655038-4.50698201,2.74761486-6.2317139,4.64231499-1.71845029,1.88524891-3.05291607,4.08208064-3.96565009,6.5307143-.906414,2.43288164-1.29983052,5.06406595-1.17079836,7.82111282.12590097,2.7759493.77738183,5.38823118,1.93246658,7.76133195,1.16451675,2.39511519,2.72243082,4.47864757,4.62658217,6.19709786,1.91041374,1.7247319,4.14818153,3.0780809,6.64716406,4.01913015,2.17164769.8214683,4.49122998,1.23691846,6.89579639,1.23691846.33361644,0,.6735337-.00945122,1.01030055-.02518404,1.8789481-.08498412,3.68238251-.41860056,5.36304714-.98511651,1.69641666-.57281676,3.28581558-1.353349,4.73044951-2.31328148,1.44776513-.96308288,2.7727989-2.10871641,3.93101484-3.39913414,1.16136635-1.29354892,2.15591487-2.72558123,2.95534954-4.25518006.79941546-1.52961805,1.40684827-3.16936583,1.8034152-4.8752145.39341652-1.69013506.55078313-3.4463326.46894942-5.22458297Zm-7.16963196,5.8571806c-.48468224,1.43833312-1.13618231,2.71299882-1.93874818,3.78624985-.79941546,1.06379982-1.7247319,1.97338343-2.75391567,2.706698-.96938369.68926652-1.96708262,1.25265128-2.96478155,1.67123263-.99141733.41545015-1.97023303.71760096-2.91128228.8938508-.92846684.17309943-1.73103271.25493314-2.44548326.25493314-1.97023303,0-3.8271475-.38398452-5.52041375-1.14248312-1.67438303-.7490666-3.13790019-1.78453198-4.35591621-3.07810011-1.21171521-1.2840977-2.16851649-2.80426453-2.84833179-4.52271483-.67668411-1.71214948-1.02288296-3.56276314-1.02288296-5.49522972,0-2.18424931.38711571-4.18281678,1.14563353-5.93901431.7553482-1.74363433,1.78138157-3.25434994,3.04976567-4.48494838,1.26836489-1.22746724,2.74761486-2.18739972,4.39996426-2.8514822,1.64604859-.66095129,3.3802317-.99771814,5.15218127-.99771814,1.98596585,0,3.84604993.38083411,5.52671457,1.1235999,1.66180062.73963459,3.12844897,1.76564875,4.35591621,3.05921688,1.23059844,1.29354892,2.19368132,2.82944857,2.86406461,4.56678209.66408248,1.72158149,1.00084933,3.57851517,1.00084933,5.52356416,0,1.82544883-.24863233,3.48409904-.73333378,4.92556336Z"/>
    <path class="cls-1" d="m254.43514452,30.29520364c-.32731563-.24550113-.64834966-.37138289-.95678207-.37138289h-8.2491646c-.43118297,0-.75536741.11960016-.9725341.35565007-.21716669.23918111-.33361644.50986628-.35565007.81829869v24.19039064l-14.858543-24.03617443c-.26753476-.40914934-.57596717-.73333378-.92531643-.97251489-.35249967-.23604991-.74276579-.35565007-1.17396797-.35565007h-9.6087952c-.41229975,0-.72703297.11329935-.94104925.33989805-.21716669.22661791-.33676685.50673508-.35565007.83405072v41.58255142c0,.86551635.43118297,1.29669933,1.29669933,1.29669933h8.28063024c.43118297,0,.78053224-.11329935,1.048067-.33991726.26751555-.2265987.40284853-.54448232.40284853-.95678207v-25.67279102l15.60132799,25.67279102c.49413346.86551635,1.20543361,1.29669933,2.13075004,1.29669933h8.68034757c.43431417,0,.78368264-.11329935,1.0511982-.33991726.26751555-.2265987.39971734-.54448232.39971734-.95678207V31.25198571c0-.39026612-.16366742-.70814974-.49413346-.95678207Zm-1.97338343,41.21116853h-7.61967895c-.00945122-.01260162-.01888322-.03148485-.03148485-.05036807l-.01573282-.02831523-.01888322-.03148485-15.59817759-25.66964061-4.58251491-7.54099564v33.32080441h-6.08694892v-39.11190333h8.30266387c.04091686.04091686.09128493.10071694.1479346.18570105l14.84281018,24.00783999,4.56993249,7.39308025v-31.5866213h6.09008011v39.11190333Z"/>
    <path class="cls-17" d="m252.46176109,32.39446884v39.11190333h-7.61967895c-.00945122-.01260162-.01888322-.03148485-.03148485-.05036807l-.01573282-.02831523-.01888322-.03148485-15.59817759-25.66964061-4.58251491-7.54099564v33.32080441h-6.08694892v-39.11190333h8.30266387c.04091686.04091686.09128493.10071694.1479346.18570105l14.84281018,24.00783999,4.56993249,7.39308025v-31.5866213h6.09008011Z"/>
    <path class="cls-1" d="m148.95859914,29.92382075h-32.19092291c-.43431417,0-.75849861.11960016-.97251489.35565007-.21716669.23918111-.32418444.56336555-.32418444.97251489v7.50953001c0,.88439958.43118297,1.32818418,1.29669933,1.32818418h10.47118036v32.59062103c0,.86551635.43433338,1.29669933,1.29984973,1.29669933h8.5544466c.4532166,0,.78368264-.11644975.99141733-.35565007.20456507-.23604991.30843241-.55078313.30843241-.94104925v-32.59062103h10.6568622c.78368264,0,1.17396797-.4437846,1.17396797-1.32818418v-7.50953001c0-.88439958-.42175097-1.32816497-1.26523369-1.32816497Zm-1.20543361,7.69521185h-11.83081096v33.88733957h-6.21283068v-33.88733957h-11.77103009v-5.22456376h29.81467173v5.22456376Z"/>
    <polygon class="cls-12" points="147.75316553 32.39446884 147.75316553 37.6190326 135.92235457 37.6190326 135.92235457 71.50637217 129.70952389 71.50637217 129.70952389 37.6190326 117.9384938 37.6190326 117.9384938 32.39446884 147.75316553 32.39446884"/>
    <path class="cls-1" d="m287.18088034,41.80437034c-1.31061652.54920023-2.44236916,1.31061652-3.39619244,2.28339095-.95382328.97326468-1.70532738,2.12945311-2.25449697,3.46850401-.54916959,1.33947987-.82375438,2.79913176-.82375438,4.37889439,0,1.5418297.26962103,2.98701928.80930739,4.33556873.53922675,1.34897842,1.28621137,2.51956789,2.24003465,3.51176839.95382328.99269075,2.08559124,1.77763895,3.39619244,2.35570252,1.31015692.57806358,2.73592042.86706472,4.27775012.86706472,1.17512426,0,2.25449697-.20682334,3.23722956-.62138923.98271727-.41413693,1.83990043-.8716608,2.57242274-1.37293929.21181774-.15399913.41413693-.27460011.6069882-.36131271.19237635-.0867126.37574439-.13003826.54916959-.13003826.32742433,0,.59704536.16392665.80930739.49135097l4.5378726,6.67674766c.30801357.38570255.42859924.70816312.36131271.96830092-.06774613.2601378-.31343694.53473792-.7370571.82373906-1.63802553,1.23340248-3.4878688,2.16781501-5.5495145,2.80366656-2.0621053.63591283-4.19103752.9538386-6.38773119.9538386-2.94818245,0-5.71345647-.55912775-8.29537776-1.67640275-2.58236558-1.11733628-4.83684723-2.63973991-6.76347558-4.56684319-1.92705732-1.92661303-3.44947626-4.18107936-4.56678191-6.76346026-1.11776525-2.58189065-1.67641807-5.34719531-1.67641807-8.29536244,0-1.86882506.25019496-3.68972838.75148878-5.46283254.50084953-1.77261391,1.21396108-3.4440529,2.13887506-5.01474594.9249293-1.57032536,2.03275171-3.00601638,3.32394216-4.30670539,1.29073084-1.30062772,2.72643719-2.42292777,4.30665943-3.36726782,1.57976263-.94391108,3.28057054-1.68093755,5.1015045-2.21114067,1.82093397-.52977416,3.71413354-.79487572,5.6795834-.79487572,1.25235362,0,2.44236916.10117491,3.56961765.30352474,1.12724848.20228855,2.19171459.47688866,3.19385794.82373906,1.00169906.3468504,1.94603911.75645254,2.83257586,1.22843872.88607715.47235387,1.70531206.97816716,2.45681615,1.51743986.28903179.21227735.45749323.45795284.50581329.73702646.04787577.27956387.00451947.52523936-.1300689.73702646l-4.82691971,6.90802212c-.19285127.27006532-.44349052.40463837-.7515041.40463837-.32786861,0-.64580971-.1250745-.95382328-.37571375-.92491398-.73212398-1.84984327-1.26183686-2.77475725-1.58975143-.92491398-.32742433-1.96544986-.49135097-3.12160765-.49135097-1.52241895,0-2.93869922.27460011-4.24884081.82373906Z"/>
    <path class="cls-1" d="m345.62168514,64.01695192v7.39931181c0,.77091485-.36626115,1.1756145-1.09833918,1.2139764h-25.00173987c-.79034092,0-1.18505178-.40463837-1.18505178-1.2139764v-38.75991953c0-.3468504.10115959-.63088779.3034941-.85266369.20231919-.22128565.49587045-.35132391.88155768-.39017606h8.29537776c.80930739,0,1.21396108.41456589,1.21396108,1.24283975v30.14663131h15.37679444c.80930739,0,1.21394576.40463837,1.21394576,1.2139764Z"/>
    <path class="cls-1" d="m378.91917155,63.19315158c.83820138-.37571375,1.55086864-.90052414,2.13887506-1.57522784.58756213-.67427473,1.04053588-1.46915045,1.35847698-2.38456587.31794109-.91498646.4769193-1.92207824.4769193-3.02041742v-23.52767162c0-.32742433.12508982-.61648676.37574439-.867126.25019496-.25021028.54916959-.37571375.89601999-.37571375h8.12195256c.44303091,0,.78039808.12550347,1.01162658.37571375.23122849.25063925.3468504.53970168.3468504.867126v23.38310977c0,2.90980523-.41459654,5.44837022-1.24287039,7.61612395-.82871814,2.16781501-2.00880616,3.95985499-3.54070834,5.37611994s-3.37722598,2.47624223-5.5350675,3.17944158c-2.15830113.70313807-4.56678191,1.05495224-7.22593257,1.05495224-2.33172633,0-4.557314-.29898995-6.67676298-.89598935-2.11990859-.59706068-3.98419886-1.57528912-5.5928708-2.9337661-1.60913155-1.35847698-2.89037916-3.13605464-3.84420244-5.332733s-1.43074258-4.88470768-1.43074258-8.06414927v-23.38310977c0-.30799825.09123207-.59252589.27458479-.85266369.18290843-.2601378.44800999-.39017606.7948604-.39017606h8.46878764c.50084953,0,.82827386.12053971.98273259.36125143.15399913.24120198.23122849.53473792.23122849.88158832v23.52767162c0,1.34897842.18787219,2.50510557.5636319,3.46844273.37574439.96376612.87659392,1.74411825,1.50299287,2.34117893.62593935.59748965,1.34853414,1.03601641,2.16778437,1.31515132.8187753.27950259,1.67143899.41910069,2.55797575.41910069,1.04053588,0,1.97991217-.18788751,2.81811355-.56366254Z"/>
    <path class="cls-1" d="m440.68716229,54.82553885c.78991196,1.69582883,1.18505178,3.47837025,1.18505178,5.34719531,0,1.5801916-.31339098,3.12159233-.93937629,4.62456988-.62641428,1.50303883-1.48404173,2.83259118-2.5723921,3.98871833-1.0889019,1.15618843-2.37010355,2.08606617-3.84421776,2.78920424-1.47411421.70362832-3.05926956,1.05501352-4.75466942,1.05501352h-20.03030427c-.80929207,0-1.21394576-.40463837-1.21394576-1.2139764v-38.75991953c0-.3468504.10567907-.64038634.31794109-.88152704.21180242-.24071173.51033276-.36131271.89600467-.36131271h18.41168949c1.61861478,0,3.15051696.31339098,4.59570654.93937629,1.44518958.62641428,2.70702644,1.47907797,3.78636851,2.55799107,1.0789131,1.07934207,1.93157679,2.34614269,2.55799107,3.80083082.62592403,1.4551171.93937629,3.01098014.93937629,4.66795682,0,1.38734032-.21227735,2.67853078-.63591283,3.87308111-.42406445,1.1949793-1.04048992,2.26445513-1.84982795,3.20830493,1.31018756,1.2139764,2.36017603,2.6690935,3.15051696,4.36449336Zm-15.55023496-7.16815992c.55869878,0,1.09840046-.09118611,1.61861478-.27453883.5202756-.18292375.97779947-.44802532,1.37293929-.79487572.39471085-.3468504.70816312-.77048588.93937629-1.27176438.23121317-.50084953.3468504-1.05948703.3468504-1.67640275,0-.5586375-.10117491-1.0789131-.30346346-1.56082681-.20234983-.48142345-.49141226-.9054879-.867126-1.27176438-.37577503-.36578623-.81926555-.65484866-1.32955235-.867126-.51083833-.2117871-1.07443959-.31792577-1.69092635-.31792577h-5.98304686v8.03522464h5.89633426Zm1.53190218,16.73528673c.50084953,0,1.00666282-.10117491,1.51750115-.30346346.5102868-.20234983.96823964-.50084953,1.37287801-.89605063.40469966-.39471085.73708774-.87656328.99722554-1.44518958.2601378-.56813605.39017606-1.22837744.39017606-1.97986621,0-.55869878-.10613867-1.11280149-.31792577-1.66200172-.21227735-.54913895-.51077705-1.04502472-.89605063-1.48851524-.38564127-.44306155-.83820138-.80437427-1.35847698-1.08387686-.5202756-.27913491-1.08884062-.41916197-1.70532738-.41916197h-7.42823644v9.27812567h7.42823644Z"/>
    <path class="cls-1" d="m469.92387925,63.52553967c.55866814-.09614987,1.05501352-.28403739,1.48854588-.56360126.433563-.27907363.7804134-.67427473,1.0405512-1.18505178.2601378-.51034808.3902067-1.18008802.3902067-2.00879084,0-.61648676-.20731359-1.15122467-.62145052-1.60415247-.41456589-.45256011-.91541542-.84273617-1.50297755-1.17065074-.58802174-.32742433-1.20944161-.60692692-1.86429027-.83820138-.65530826-.23121317-1.23340248-.433563-1.73425201-.6069882-2.21610443-.7704246-4.17657521-1.60862598-5.88190259-2.51460413-1.70532738-.9054879-3.12655609-1.90761593-4.26328781-3.00601638-1.13719132-1.09833918-1.99932293-2.3122543-2.58688506-3.64186793-.58802174-1.32955235-.88158832-2.80366656-.88158832-4.42222005,0-1.94603911.43809779-3.63690417,1.31512068-5.07265648.87662456-1.43526206,2.02328379-2.6252776,3.43954874-3.56961765,1.41629559-.9438498,3.02044806-1.64251436,4.81248804-2.09550344,1.79203998-.45249883,3.60301578-.67923849,5.43390791-.67923849,1.2523383,0,2.51913892.13009954,3.80083082.39023734,1.28126293.26007652,2.51913892.63131676,3.71414886,1.11274021,1.19451969.4819137,2.30235742,1.05501352,3.32391152,1.71978969,1.02112513.66477618,1.89771905,1.39236537,2.63024136,2.18221604.38524294.44349052.57309981.86259121.5636319,1.25736334-.00992752.39513982-.23620757.82373906-.67923849,1.28616541l-4.21996215,4.53791856c-.30845786.30842722-.60695756.46248763-.89598935.46248763-.27009596,0-.52523936-.08677388-.76595109-.2601378-.24117133-.1734252-.46745139-.3468504-.67923849-.5202756-.98273259-.867126-2.02328379-1.58975143-3.12162297-2.16781501s-2.31228494-.867126-3.64186793-.867126c-.50130914,0-.99716426.05331446-1.48854588.15902417-.49135097.10607739-.92987774.27950259-1.31512068.52021432-.38567191.24120198-.69367016.55912775-.92491398.9538386-.23124381.3952011-.3468504.88158832-.3468504,1.45965189,0,.61691572.18292375,1.12272901.54916959,1.51743986.36581687.3952011.84273617.73255295,1.43072726,1.01162658.58756213.27956387,1.24740518.53020312,1.97992749.75148878.7320627.2217759,1.46415604.45795284,2.19667835.70816312,1.96546518.6747037,3.76697307,1.3684045,5.40501392,2.08104113,1.63758124.71312688,3.04934204,1.55629201,4.23439382,2.52912772,1.18505178.9732034,2.10500199,2.12939183,2.76031026,3.46844273.65484866,1.33947987.98270195,2.97255696.98270195,4.89917,0,2.21610443-.44799467,4.15760874-1.34401466,5.82408397-.89601999,1.66696548-2.08603553,3.06380436-3.56961765,4.19106816-1.48401109,1.1272638-3.1843747,1.9753927-5.10148918,2.54352875-1.91760473.56813605-3.88757406.85266369-5.91082721.85266369-1.42622311,0-2.84248806-.18335272-4.24885613-.54920023-1.40679704-.36578623-2.76527402-.86706472-4.07543093-1.50297755-1.31058588-.63585155-2.54352875-1.3774128-3.69965591-2.22560298-1.15615779-.84769993-2.18721044-1.76311535-3.09272898-2.7458173-.13503266-.15399913-.27456947-.31798706-.41910069-.49141226-.14450057-.17336392-.2601378-.34678912-.3468504-.52021432-.08668196-.1734252-.13003826-.34188664-.13003826-.50581329,0-.16349768.06728653-.31302329.20231919-.44802532l5.17377011-5.05819416c.26960571-.26957507.5586375-.40463837.86709536-.40463837.21181774,0,.42859924.05784925.6503445.1734252.22128565.11563723.43806715.27006532.6503445.46248763.52024496.42406445,1.10284333.89145456,1.74865304,1.40180264.64538074.51077705,1.33408714.98276323,2.06664009,1.41632623.7320627.43350172,1.50297755.79481444,2.31228494,1.08387686.80930739.28900115,1.63758124.433563,2.48574078.433563.57806358,0,1.14619963-.04792173,1.70529674-.14456185Z"/>
  </g>
  <g>
    <g>
      <g>
        <path class="cls-13" d="m33.23674277,39.39394442c-.04626481-.3230577-.05919736-.65672678-.03368112-1.00025694.08131228-1.0888102.5164507-2.02028965,1.13496638-2.81457141.0006811-.00073244.00135804-.00184002.00203914-.00255459.09355958-.12036954.19154214-.23745205.29326658-.35160482-.09900005.11342033-.19426238.2301277-.28510172.34938965.27795849-.07608398.55625339-.14852365.83556992-.21767629-.27999763.07024236-.55931417.14341447-.83760906.22024875-.77467397,1.01562023-1.26084488,2.24309299-1.1315609,3.6238413.00612157.06475803.01360534.12915877.02211076.19318436Z"/>
        <path class="cls-1" d="m34.63333477,35.22495473c-.10172545.11415418-.19970739.23123786-.29326868.35160641-.00067955.00071076-.00135669.00182493-.00203864.0025549-.61851446.79428645-1.05365465,1.72575962-1.13496489,2.81457059-.02551541.3435287-.01258481.67720277.03367957,1.00025383-.00850514-.06402623-.01598735-.12842706-.02211047-.19318327-.1292843-1.38074216.35688911-2.60821901,1.13156236-3.62384067.27829465-.07682956.55760981-.14999965.83760693-.22024986-.27931277.06915525-.55760981.14159537-.83556589.21767575.0908383-.11925438.18609965-.23596347.28509972-.34938768h0Z"/>
      </g>
      <g>
        <path class="cls-11" d="m36.6950458,43.98145661v.00952166c-.15752047-.10463111-.31435985-.21074495-.46983703-.31866308-.40111675-.27841485-.79372809-.59636337-1.1567366-.95088007.5035223.48403275,1.06487976.90330748,1.62657362,1.26002149Z"/>
        <path class="cls-1" d="m35.06847016,42.72143169c.36301223.3545167.75562194.67246756,1.15673919.95088467.15547685.10792061.31231279.21403549.46983548.31866162v-.00951845c-.56169189-.35671622-1.12305002-.77598912-1.62657466-1.26002784h0Z"/>
      </g>
      <g>
        <path class="cls-10" d="m36.696408,33.64955911l-.1129501-.07024236c.0377594-.02524223.07518655-.04975203.1129501-.07426183v.14450419Z"/>
        <path class="cls-1" d="m36.69641112,33.5050541c-.03776645.02451169-.07519433.04902339-.11295357.07426505l.11295357.0702406v-.14450565h0Z"/>
      </g>
      <g>
        <polygon class="cls-16" points="43.05816991 73.1233703 53.65648947 66.48450247 53.69086414 54.51221717 43.07204105 61.13841922 43.05816991 73.1233703 43.05816991 73.1233703"/>
        <path class="cls-1" d="m52.62695171,56.42368933l-.02719626,9.47383681-8.48094994,5.312535.01097359-9.48410445,8.49717261-5.30226736h0Zm1.06391027-1.91147028l-10.61882201,6.62619657-.01386947,11.98495993,10.59832036-6.63887503.03437112-11.97228147h0Z"/>
      </g>
    </g>
    <g>
      <path class="cls-1" d="m36.73212825,45.61430569l-.10546218-.06549046-.05273524-.03329902-10.38885915-6.47280145v-.05268177l-.00034055-.06806292-.02483515-8.77515027-.00884597-3.05129102.00374604.00257246,10.42798074,6.48085824.0006811.00035729c-.69268475.45879052-1.37719632,1.00209696-1.9477403,1.64271016-.00102165.00110759-.00170274.00184002-.00238384.00292974-.09900005.11342033-.19426238.2301277-.28510172.34938965.27795849-.07608398.55625339-.14852365.83556992-.21767629-.27999763.07024236-.55931417.14341447-.83760906.22024875-.77467397,1.01562023-1.26084488,2.24309299-1.1315609,3.6238413.00612157.06475803.01360534.12915877.02211076.19318436.00170274.01207626.00340549.02415251.00510408.0362109.19460708,1.28674645.9165458,2.40262104,1.82628478,3.29092252l.00034055.00035729c.5035223.48403275,1.06487976.90330748,1.62657362,1.26002149l.00102165-8.9697995v-.00073244l.00034055-1.36136556.01463114.00914651.00237969,1.34855687v.0007503l.01598919,8.99539902v.01061138l.00272024,1.60028249Z"/>
      <path class="cls-1" d="m43.92158874,34.16944548v.00292974c-2.37675299.0881781-4.74193977.33220421-7.08024812.80928776-.04252708.00877136-.08539471.01756059-.12792179.02634982-.00578518.00108972-.0115662.00217944-.01735138.00364431v-.00073244l.00034055-1.36136556-.1129501-.07024236c-.69268475.45879052-1.37719632,1.00209696-1.9477403,1.64271016-.00102165.00110759-.00170274.00184002-.00238384.00292974-.09900005.11342033-.19426238.2301277-.28510172.34938965-.00272024.0007503-.00544463.00146487-.00816487.00221517-1.53948032.42109688-3.05548354.94209084-4.52862327,1.58050673-1.13734192.49282198-2.23828664,1.06465768-3.31201237,1.69832167-.04932975.02890441-.0986595.05818397-.14798926.08780295-.02245546.01318384-.04491092.02672497-.06736223.04024823-.01871358.01098653-.0370866.0219552-.05580018.03329902-.01428644.00877136-.02891758.0172033-.04320818.02597467v-.05268177l-.00034055-.06806292-.02483515-8.77515027-.00884597-3.05129102c.0013622-.00071457.00238384-.00144701.00374604-.00217944.0265379-.01611358.05307164-.03219144.07995008-.04792987.03776355-.02268764.0755271-.04537528.11329065-.06768777,2.04027823-1.2084473,4.18602694-2.16736629,6.41955005-2.88370618,1.70006158-.5451286,3.43414483-.96368876,5.18558361-1.26734584.11430814-.0197579.22896514-.03915851.34361383-.05780882.00578518-.00108972.01157036-.00182216.01735138-.00292974.06566364-.01061138.13098673-.02122277.19664622-.031459.06974607-.01098653.1391516-.0219552.20889352-.03292387.00374188-.00037515.00782847-.00073244.0115662-.00184002.06940552-.01023623.13881105-.02084762.20821657-.03110172.14582137-.02152646.29175903-.04208825.43775483-.06211411.0790821-.01087935.15818911-.02143714.23730443-.03185202.06762803-.00889641.13528928-.01752486.20295053-.02608185.06626583-.00841408.13248598-.0174534.19877257-.02554592.14255293-.01757845.28510172-.03403146.42765465-.04939474.05579188-.00623463.11159206-.01207626.16738393-.01829303.04457037-.00476976.0888002-.00952166.13336642-.01391628,1.05263246-.1071857,2.10798516-.17121129,3.16503645-.20999465l.00918236,9.29065989v.00219731l.00272439,2.64516441Z"/>
      <path class="cls-1" d="m81.19649431,49.54994832c-2.11828048-1.31334489-4.23656097-2.62668979-6.35484145-3.94003468l-9.31405567-5.77476285c-1.75915033-1.09068234-3.52705215-2.11714569-5.42816319-2.90224605-2.48067131-1.02444091-5.07469715-1.72460345-7.69635582-2.17695455-2.49464356-.43043543-5.02249177-.61869424-7.54826466-.60004129-.31112815.0022977-.62208061.00961144-.93315349.0165002l-.01209753-11.94102281c2.54813842-.0563588,5.09017744.0681836,7.61633151.44247404,2.59039776.38380918,5.16280014,1.01222588,7.63194959,1.94289996,2.00100868.75422203,3.88937495,1.72713863,5.72516739,2.86250855l8.64516224,5.34671402c2.52361875,1.56076513,5.04723751,3.12153026,7.57085626,4.68229539l.13177304.08149676-.03430822,11.96017332h0Z"/>
      <path class="cls-1" d="m81.23076692,37.58988405l-9.6400399,6.00450713-.94307955.58757414c-1.84465573-1.14406442-3.68896884-2.28773583-5.53362457-3.43178239-2.58190255-1.60137221-5.16346662-3.20236927-7.74537124-4.80338419-.00034055-.00035729-.0006811-.00035729-.00102165-.00035729-.00101957-.00073244-.00204122-.00146487-.00306079-.00219731-.00034055-.00037515-.0006811-.00037515-.00102165-.00037515-.42016673-.26085426-.840674-.52170853-1.26084281-.7822055-.26809088-.16610211-.53584122-.33220421-.8039321-.49830632-1.57486211-.97683687-3.10651811-1.91015634-4.87496357-2.4428514-.78521852-.23634447-1.58677093-.41414768-2.39682876-.53598209-.03129727-.00512705-.0629351-.0095038-.09457707-.01389841-1.32888406-.19354164-2.67886554-.23780934-4.01353893-.14854151-.16092181.01061138-.32150307.02304493-.48174378.03769364-.18405837.01682815-.36777619.0362109-.5511493.05852339-.00884597.00073244-.01769193.00184002-.0265379.00330489-2.11648642.25976454-4.16935665.89049879-6.05075637,1.98002355-.03265947.01866818-.06497839.03805092-.09763786.05707638l-.01463114-.00914651-.1129501-.07024236-.0006811-.00035729-10.42798074-6.48085824-.00374604-.00257246c.0013622-.00071457.00238384-.00144701.00374604-.00217944.0265379-.01611358.05307164-.03219144.07995008-.04792987.03776355-.02268764.0755271-.04537528.11329065-.06768777.35893022-.21438926.71989959-.42402663,1.08631358-.62378504,3.28547032-1.79235926,6.88734794-2.90201707,10.51882008-3.52726699.11430814-.0197579.22896514-.03915851.34361383-.05780882.00578518-.00108972.01157036-.00182216.01735138-.00292974.06566364-.01061138.13098673-.02122277.19664622-.031459.06974607-.01098653.1391516-.0219552.20889352-.03292387.00374188-.00037515.00782847-.00073244.0115662-.00184002.06940552-.01023623.13881105-.02084762.20821657-.03110172.50045736-.07388668,1.00193636-.13901985,1.50443701-.19498865.05579188-.00623463.11159206-.01207626.16738393-.01829303.04457037-.00476976.0888002-.00952166.13336642-.01391628,2.88333607-.30072734,5.79490863-.30621168,8.67858525-.02559952,1.49268392.14530808,2.98285733.36816501,4.457542.67725284.00336811.00071457.00673622.00141128.01010226.00210799.1206083.02531369.241119.05116331.36151133.07763817.01185692.00260819.02372421.00514491.03557905.0077531.12691053.02804692.25373384.05652259.38038688.08587361.15854004.0362109.31674161.07390454.47460264.11304518.005102.00073244.00986554.00219731.01462907.00366218.07654875.01865031.15309749.03769364.22964624.05707638.15854004.03987308.31674161.08085375.47460264.12292413.00204122.00037515.00442091.00110759.0064642.00146487l.23474824.06366831c.07314741.02011518.14663329.04060552.2197807.0607207.2507395.07026023.50045736.14343233.74949619.21915903.07178729.0219552.1435725.04426769.21569827.06658018.13982854.04317797.27931654.08780295.41880661.13317823.02789801.00877136.05579603.01791788.08369404.02743954.22420161.0731721.44738364.1488988.67022513.2275731.71717727.25097531,1.42720924.52719286,2.12771623.82829535,3.28376965,1.41260033,6.30863701,3.53348376,9.36378208,5.42314977,3.75939394,2.32505432,7.51912842,4.65009078,11.27852235,6.97550238Z"/>
      <path class="cls-1" d="m81.19640471,49.54986086l-10.5698505,6.60049535-6.13274559-3.81300619c-2.79794136-1.73930234-5.59622327-3.47896196-8.39416464-5.2182643-.04831226-.02999413-.09662244-.06000613-.14493262-.09037541l-.02415613-.01536328c-.70220766-.43938991-1.39965178-.89307124-2.11274454-1.31306054-.43955932-.25976454-.88558493-.50672039-1.34181453-.72989888-.37117752-.18146539-.74949827-.34756749-1.137344-.49171439-1.51498572-.56379678-3.10788238-.88172742-4.7109789-.99550504-.01905413-.00146487-.0377677-.00292974-.05647713-.00401946-.05545548-.00403733-.11091096-.00769951-.16636644-.01098653-.69676303-.04098067-1.39488825-.04426769-2.08893104-.01280869-.21671784.00987895-.43343567.02304493-.65049406.04024823-.06293925.0047519-.12621905.01023623-.18916245.01609572-.02142966.00146487-.04320403.00328703-.06463784.00585948-.03572441.00292974-.07110827.00621677-.10648798.00987895-1.77661448.17194373-3.54675853.59268332-5.18626471,1.34635957-.00612157.00292974-.01190675.00548433-.01803248.00841408-.17793264.08196133-.35450309.16829941-.52937494.25829967-.28544226.14707664-.56203441.30951657-.83931596.47379652l-.10546218-.06549046-.05273524-.03329902-10.38885915-6.47280145c.01429059-.00877136.02892174-.0172033.04320818-.02597467.01871358-.01134382.0370866-.02231249.05580018-.03329902.02245131-.01352326.04490677-.02706439.06736223-.04024823.04932975-.02961898.0986595-.05852339.14798926-.08780295,2.47643829-1.45392042,5.11413894-2.52479487,7.8385965-3.27627381.00272024-.00073244.00544048-.00146487.00816487-.00219731-.77467397,1.01562023-1.26084488,2.24309299-1.1315609,3.6238413.00612157.06475803.01360534.12915877.02211076.19318436.00170274.01207626.00340549.02415251.00510408.0362109.19460708,1.28674645.9165458,2.40262104,1.82628478,3.29092252l.00034055.00035729c.5035223.48403275,1.06487976.90330748,1.62657362,1.26002149l.00102165-8.9697995v-.00073244c.00578518-.00108972.0115662-.00255459.01735138-.00366218.07518655-.01572057.1507178-.03108385.2262449-.04608985,2.30088119-.46207755,4.63953423-.72293181,6.98192501-.79172717,1.3945477-.0409628,2.79079814-.01389841,4.18126341.07940674.01020401.00071457.02041217.00146487.03062033.00217944.10988931.00732436.21943808.015006.32932739.02342008,1.01928774.07683428,2.03789854.18878974,3.05174373.33879613.05953791.00914651.11907583.01791788.17861374.02706439s.11941637.01829303.17895429.02781469c.03266155.0047519.06532101.01023623.09798256.01536328,1.36903145.21840873,2.72887639.50745283,4.06967135.87331335.04626897.01243354.09219946.02524223.13812788.03805092.09696091.02668924.1939239.05412878.29054427.08156832.30075243.08598079.60048321.17598105.89919235.27001864.00034055,0,.0006811,0,.00102165.00035729.68247451.21438926,1.35950646.45001916,2.02939312.70758639,1.8514584.71123071,3.58860451,1.6503918,5.29138841,2.66711961.00442298.00255459.00850542.00512705.01258785.00768164,1.19211838.71196314,2.36756855,1.46160206,3.55390383,2.19771771.00884597.00512705.01735138.01061138.02619527.01609572,1.10298386.68379117,2.2056251,1.3676002,3.30860688,2.05139137,3.11264384,1.92991424,6.2252856,3.85982848,9.33792735,5.78974272.08947714.05523636.17861374.11049059.26775033.16572696Z"/>
      <g>
        <path class="cls-15" d="m53.67917438,45.61410732l16.94726801,10.53613985.02116802-11.96835516-5.53360083-3.43170178-9.01128595-5.58841285c-1.54921048-.96075386-3.06709264-2.00632801-4.76683086-2.63703367-2.2468072-.83370134-4.6633282-1.12940471-7.03171466-1.02181232-2.31317963.10508442-4.65490725.60384897-6.75265042,1.68281422-.28586186.14703183-.56274235.30936348-.84049239.4730832l.02107562,11.95529637c2.04320848-1.20738189,4.29082248-1.86600002,6.60867781-2.09043769,2.27434929-.22022499,4.59477886-.04896961,6.80683536.56936368,1.23870715.34625421,2.41134927.85774728,3.5315503,1.52105614h0Z"/>
        <path class="cls-1" d="m45.23368897,32.54013668h-.0000048c2.05769521.00004802,3.98713624.32871795,5.73400742.97691393,1.31593793.48829368,2.52505022,1.25158513,3.80514268,2.05970263.25713746.16232274.51417888.32457824.77207032.48450935l6.51680161,4.04144232,2.49448264,1.54697409,3.13817393,1.94616316,1.89378766,1.17444822-.01675574,9.47774601-15.33339943-9.53279166-.00971055-.00604148-.00983061-.00582057c-1.21289181-.71819646-2.48664504-1.26650154-3.78589447-1.62967224-1.66202153-.4645888-3.41216318-.70015847-5.20223238-.70015847-.65937608.00001921-1.32943761.03253178-1.99154629.09665406-1.95243516.18904356-3.77901736.66185415-5.45131373,1.40935515l-.01694063-9.61046645c.08917425-.04954205.17674209-.09667327.26510953-.14213325,1.81093583-.93144436,3.93613905-1.45856103,6.31657316-1.56670255.29398184-.01336041.59055701-.02012226.88147969-.02012226h0Zm0-1.05842108c-.31035819,0-.62030817.00717486-.92950897.02121721-2.31318063.10508716-4.65490701.60385018-6.75264982,1.68281613-.2858609.14703174-.56274363.30936408-.8404956.47307953l.02107314,11.95530001c2.04321343-1.2073834,4.29082863-1.8660007,6.60867724-2.0904383.62731014-.06074136,1.25849105-.09170754,1.88956631-.09171715,1.65694054-.00002881,3.31533623.21328631,4.91727433.66107615,1.23870497.34625649,2.41134746.85774599,3.53154723,1.52106008l16.94727162,10.53613827.02116439-11.96835307c-1.84453376-1.14390465-3.68907232-2.28779969-5.53359647-3.43170434-3.00376302-1.86280227-6.00752604-3.72560454-9.01128425-5.58841642-1.54921203-.96074889-3.0670977-2.00632823-4.76683285-2.6370337-1.95348209-.72485266-4.035324-1.04301482-6.10220629-1.04302443h0Z"/>
      </g>
      <polygon class="cls-1" points="70.62644239 56.15024717 81.19649431 49.54994832 81.23080254 37.58977501 70.64761041 44.18189201 70.62644239 56.15024717 70.62644239 56.15024717"/>
    </g>
    <g>
      <g>
        <path class="cls-14" d="m36.6950458,43.98145661v.00952166c-.15752047-.10463111-.31435985-.21074495-.46983703-.31866308-.40111675-.27841485-.79372809-.59636337-1.1567366-.95088007.5035223.48403275,1.06487976.90330748,1.62657362,1.26002149Z"/>
        <path class="cls-1" d="m35.06847016,42.72143169c.36301223.3545167.75562194.67246756,1.15673919.95088467.15547685.10792061.31231279.21403549.46983548.31866162v-.00951845c-.56169189-.35671622-1.12305002-.77598912-1.62657466-1.26002784h0Z"/>
      </g>
      <g>
        <path class="cls-2" d="m36.696408,33.64955911l-.1129501-.07024236c.0377594-.02524223.07518655-.04975203.1129501-.07426183v.14450419Z"/>
        <path class="cls-1" d="m36.69641112,33.5050541c-.03776645.02451169-.07519433.04902339-.11295357.07426505l.11295357.0702406v-.14450565h0Z"/>
      </g>
      <g>
        <polygon class="cls-4" points="43.05816991 73.1233703 53.65648947 66.48450247 53.69086414 54.51221717 43.07204105 61.13841922 43.05816991 73.1233703 43.05816991 73.1233703"/>
        <path class="cls-1" d="m52.62695171,56.42368933l-.02719626,9.47383681-8.48094994,5.312535.01097359-9.48410445,8.49717261-5.30226736h0Zm1.06391027-1.91147028l-10.61882201,6.62619657-.01386947,11.98495993,10.59832036-6.63887503.03437112-11.97228147h0Z"/>
      </g>
    </g>
    <g>
      <polygon class="cls-7" points="92.09745697 56.40388058 81.25035191 49.67138605 81.24991169 37.74329698 92.13168628 44.45424719 92.09745697 56.40388058 92.09745697 56.40388058"/>
      <polygon class="cls-9" points="81.52938604 51.03959363 92.13168628 44.45424719 81.24991169 37.74329698 70.6476073 44.2812852 81.52938604 51.03959363 81.52938604 51.03959363"/>
      <polygon class="cls-1" points="81.52893751 63.01019969 92.09745697 56.40388058 92.13168628 44.45424719 81.52938604 51.03959363 81.52893751 63.01019969 81.52893751 63.01019969"/>
      <path class="cls-8" d="m70.62655421,56.15035621c3.63412801,2.28661038,7.2682555,4.57323863,10.90238351,6.85984901l.00044853-11.97060606-10.88177927-6.75830843c-.00701759,3.9563492-.01403518,7.91271627-.02105277,11.86906547Z"/>
    </g>
    <g>
      <polygon class="cls-1" points="53.67813961 66.56437717 42.99968877 73.19157967 42.96510971 61.11821077 53.67769481 54.51221715 53.67813961 66.56437717 53.67813961 66.56437717"/>
      <polygon class="cls-1" points="64.63807168 73.36690029 53.67813961 66.56437717 53.67769481 54.51221715 64.67265704 61.29297184 64.63807168 73.36690029 64.63807168 73.36690029"/>
      <polygon class="cls-1" points="53.96007613 67.94681628 64.67265704 61.29297184 53.67769481 54.51221715 42.96510971 61.11821077 53.96007613 67.94681628 53.96007613 67.94681628"/>
      <polygon class="cls-1" points="64.63807168 73.36690029 53.95962294 80.04193554 42.99968877 73.19157967 53.67813961 66.56437717 64.63807168 73.36690029 64.63807168 73.36690029"/>
      <polygon class="cls-1" points="42.99968877 73.19157967 53.95962294 80.04193554 53.96007613 67.94681628 42.96510971 61.11821077 42.99968877 73.19157967 42.99968877 73.19157967"/>
      <polygon class="cls-6" points="53.95962294 80.04193554 64.63807168 73.36690029 64.67265704 61.29297184 53.96007613 67.94681628 53.95962294 80.04193554 53.95962294 80.04193554"/>
    </g>
    <g>
      <path class="cls-1" d="m36.696408,33.64955911l-.00034055,1.36136556v.00073244l-.00102165,8.9697995c-.56169386-.35671401-1.12305133-.77598873-1.62657362-1.26002149l-.00034055-.00035729c-.90973898-.88830148-1.6316777-2.00417607-1.82628478-3.29092252-.00169859-.01205839-.00340134-.02413465-.00510408-.0362109-.00850542-.06402559-.01598919-.12842633-.02211076-.19318436-.12928399-1.38074831.35688693-2.60822107,1.1315609-3.6238413.27829489-.07683428.55761143-.15000639.83760906-.22024875-.27931654.06915264-.55761143.14159231-.83556992.21767629.09083934-.11926195.18610166-.23596932.28510172-.34938965.0006811-.00108972.0013622-.00182216.00238384-.00292974.57054398-.64061319,1.25505555-1.18391964,1.9477403-1.64271016l.1129501.07024236Z"/>
      <path class="cls-1" d="m35.63756983,35.69975354l-.00069395,6.09137677c-.55944435-.58640769-1.18773899-1.45618862-1.34702418-2.50907728l-.00391159-.02748921c-.00675464-.05084832-.01272649-.10198478-.01749772-.15247772-.08345454-.89123826.15786847-1.7649668.71777145-2.60167807.1514692-.040014.30322655-.07901948.455164-.11714131l-.09159949-.36751212c.02665839-.03191707.05367456-.06355559.08096207-.09481953l.00626719-.00717486c.06404785-.07153726.13095075-.14292085.20056223-.21400668h0Zm.94588772-2.12043439c-.69268346.45878744-1.37719796,1.00209797-1.94774076,1.64270609-.00102052.00110456-.00170487.00184414-.00238201.00292949-.09899766.11342421-.19426382.2301333-.28510452.34938768.27796088-.07608038.55625552-.1485205.83557069-.21767575-.27999471.07025021-.55931228.1434203-.83760693.22024986-.77467325,1.01562166-1.26084665,2.24309851-1.13156236,3.62384067.00612312.06475621.01360533.12915703.02211047.19318327.00170487.01208296.00340253.02415631.0051074.03621046.19460239,1.28674866.91654236,2.40262622,1.82628206,3.29092538l.00034338.00035538c.50352225.48403871,1.06488037.90331162,1.62656746,1.26002784l.00102292-8.96980071v-.00072997l.00034338-1.36136909-.11295117-.0702406h0Z"/>
    </g>
    <g>
      <path class="cls-5" d="m43.05827659,61.20586689l-.01395005,11.97680496c-2.80814952-1.75393319-5.61629489-3.50859881-8.42478496-5.26254986-1.48368429-.92670969-2.97008883-1.84904263-4.45513531-2.77430531l-2.21277039-1.38223105c-.61817514-.38706542-1.23566503-.7752563-1.85214158-1.16526933-.25720162-.16243993-.50351814-.3223074-.74031175-.47963814-3.21470675-2.13808673-4.60584896-3.83531868-5.76224501-6.10731608-2.18385281-4.29080431-1.86098754-9.39711315-1.41700316-16.41432864.01939052-.30840898.03980684-.60000768.06055541-.87147333-.01768778,1.83844911.43275873,3.67103874,1.31119628,5.33388194.14255293.26964349.29360713.53269506.4524898.78952986,1.51022219,2.44467356,3.72605337,4.3131168,6.06402116,5.78570539,2.84999551,1.79491385,5.71768294,3.55763627,8.57618386,5.33607925,2.80474403,1.74516182,5.60914752,3.49030578,8.41389571,5.23511032Z"/>
      <path class="cls-1" d="m18.9445554,45.14176933c.05215819.08842267.10527086.17634588.15916873.26347189,1.42466055,2.30617386,3.51824445,4.30967824,6.4004287,6.12503233,1.90795248,1.20163007,3.85416127,2.40763997,5.73629339,3.57395284.94862511.58783882,1.89722622,1.17565843,2.84477798,1.76518772l2.22225588,1.38275919,5.69169306,3.5412962-.01104083,9.48150152-2.10431257-1.31448759-4.70357021-2.93805112c-.91648233-.57244217-1.83399959-1.1432131-2.75158888-1.71402244l-1.70351468-1.06026522-2.21181536-1.38162581c-.61678077-.38620325-1.23287239-.77351106-1.84865426-1.16308562-.25006346-.1579333-.48954712-.31336932-.71934905-.46604874-3.16203009-2.10304952-4.37629059-3.68474531-5.40511899-5.70611481-1.46237177-2.87324689-1.7235577-6.21862243-1.5956529-10.38950033h0Zm-.70406286-6.41620474c-.02075138.27146316-.04116778.56305819-.06055887.87147139-.4439851,7.01721187-.76684766,12.12352016,1.41700425,16.41432478,1.15639822,2.27199964,2.54754008,3.96923272,5.76224582,6.1073209.23678949.15732819.48310944.31719207.74031414.47963007.61647342.39001639,1.23396015.77820785,1.85213603,1.16527554l2.21277345,1.38223092c1.48504893.9252588,2.97144975,1.84759772,4.45513718,2.77430686,2.80848829,1.75394999,5.6166356,3.50862034,8.42478051,5.26255112l.01395111-11.97680538c-2.80474478-1.74480613-5.60914858-3.48994843-8.41389576-5.23510993-2.85850098-1.77845208-5.72618664-3.54117133-8.57618488-5.3360862-2.33796846-1.47258418-4.55379387-3.34102452-6.06401963-5.78570097-.15887938-.25683491-.30993798-.51988418-.45249143-.78953202-.87843374-1.66284755-1.32888533-3.49543282-1.31119191-5.33387708h0Z"/>
    </g>
    <g>
      <path class="cls-3" d="m53.69091055,54.51239795l-9.62575138,6.00632929-.05477438.03438875-.93831601.58537683c-.06124066-.03805092-.12248131-.07610185-.18371782-.11451006-3.26199737-2.02943616-6.52365418-4.05885446-9.78565155-6.08864791-2.63906285-1.64197772-5.34990675-3.19617036-7.92330596-4.95778519-2.50705862-1.71588226-4.81814797-3.99958077-6.07252658-6.94695526-.62021428-1.45722531-.89612948-3.00371844-.84884302-4.53851046v-.00108972c.01293255-.41195037.04899336-.82281102.10819072-1.23075979,0-.00182216,0-.00364431.0006811-.00548433.18235562-1.26111121.58381293-2.49515802,1.1921163-3.64433163,1.52111145-2.87311266,3.98257805-4.96691384,6.5957841-6.61439376l.07995008.04939474,10.46166186,6.45963548c-.03776355.0245098-.07586765.04901959-.1136312.07390454-.1901841.12328142-.37866545.24804557-.56271966.38268867-.49603853.36219834-.97063909.7847601-1.38433954,1.26037877-.00102165.00110759-.00170274.00184002-.00238384.00292974-.09900005.11342033-.19426238.2301277-.28510172.34938965-.0006811.0007503-.00135804.00184002-.00203914.00257246-.77467397,1.01562023-1.26084488,2.24309299-1.1315609,3.6238413.00612157.06475803.01360534.12915877.02211076.19318436.00170274.01207626.00340549.02415251.00510408.0362109.18848135,1.31893789.91212282,2.41176755,1.82628478,3.29092252l.00034055.00035729c.5035223.48403275,1.06487976.90330748,1.62657362,1.26002149.00306079.00219731.00578518.00403733.00884597.00585948.00850542.00548433.01701083.01061138.02551625.01609572.46167216.29268842.92505122.58246495,1.38944362.87038361.00544463.00330489.01054871.00659192.01598919.0102541.50760888.31464362,1.01657166.62744722,1.52519388.94062597.51032497.31317875,1.02030939.62671478,1.52961271.94244812.02075687.01245141.04116489.02524223.06192176.03805092,2.70233849,1.67418703,5.40468114,3.34871347,8.10702378,5.0229005,1.444218.8948934,2.88809753,1.78942952,4.3323176,2.68432292Z"/>
      <path class="cls-1" d="m26.1678271,28.24801619l8.6315451,5.32962211c-.34670311.29578276-.66534793.60965154-.95215731.93818699l-.0580808.06305614-.00986423.01574242c-.08228754.09640434-.16253644.19515227-.2395533.29476464l-.00145274.00154639-.00814975.01068064-.00455512.00512901-.02234339.03013056c-1.02007593,1.3382405-1.48431896,2.84679501-1.34229857,4.36353289.00738136.07806859.01637154.15570496.02778456.24139024l.00537154.03808341c.20182287,1.41226543.91542579,2.71939568,2.12107551,3.88543961l.00095809.00101812.01885681.01812444c.50710727.48747727,1.10291816.95061573,1.77114755,1.37677534l.01735845.01223664.02742438.01638595.01180682.00747261c.45918845.29110518.92008177.57938651,1.39029663.8709143l.00774875.00519625.01645559.01021c.41827399.25926495.83745565.51729086,1.2566205.77529757l.27260615.16780713c.50896342.31235121,1.01759547.62503858,1.53854099.94785912l.03240692.01991095.01677975.01038289,3.91948896,2.42841536,4.18746075,2.59444559,2.19624583,1.3607928.68913205.42699524-8.18399058,5.10670209-.05233708.03284874-.37867781.23624201-9.40964009-5.85469294c-.82607865-.51396757-1.67082442-1.02647519-2.48775441-1.52211662-1.79347894-1.0881002-3.64801859-2.21323689-5.3968948-3.4104295-2.74814073-1.88087868-4.66469439-4.0637545-5.69643787-6.48801094-.55123456-1.29515294-.80855692-2.67170737-.76481623-4.0914358l.00035298-.01211177c.0119773-.36742568.0447324-.73757914.09737203-1.10032724l.0082482-.05688019c.16964407-1.13239798.53038234-2.22555036,1.07251146-3.24970117,1.14705025-2.1665667,3.00614983-4.08719044,5.67340774-5.85763203h0Zm-.01303384-1.25198854c-2.61320155,1.64747972-5.07466976,3.74127973-6.59578267,6.61439215-.60830325,1.14916813-1.00975907,2.38321472-1.19211282,3.64432791-.00068435.00184414-.00068435.00366907-.00068435.0054844-.05919737.40794873-.09525415.81880775-.10819315,1.23076172v.00108535c-.0472849,1.53479508.22863373,3.08128893.84884946,4.53851488,1.25437535,2.94737748,3.56546212,5.23107588,6.07252476,6.94695206,2.57340126,1.76161469,5.28424138,3.31581167,7.92330651,4.95778778,3.26199784,2.02979299,6.52365471,4.05921138,9.78565014,6.08864898.06123601.03840998.12248163.07645497.18371764.11450957l.93831186-.58537997.05477672-.03438553,9.62575264-6.00632542c-1.44422092-.89489773-2.88810086-1.78943047-4.33231218-2.6843282-2.70234699-1.67418133-5.40468917-3.34870844-8.10702175-5.02289937-.02076578-.01281293-.04117139-.02559705-.06192756-.0380546-.50929959-.31573213-1.01929073-.62926474-1.52961324-.94244196-.50862244-.31317723-1.01758586-.62597986-1.52519499-.94062664-.00543877-.00365947-.01054377-.00695394-.01598975-.01025803-.4643895-.28791635-.92777289-.57769605-1.3894442-.87037643-.00850514-.0054844-.01701027-.01061341-.02551541-.01609781-.00305676-.00182493-.00578695-.00366907-.00884611-.00585899-.56168949-.35671622-1.12305002-.77598912-1.62657466-1.26002784l-.00033617-.00035538c-.91416275-.87915531-1.63780279-1.97198112-1.82628686-3.29092538-.00169767-.01205414-.00340013-.0241275-.005105-.03621046-.00850514-.06402623-.01598975-.12842706-.02211287-.19318327-.12927949-1.38074216.35688671-2.60821901,1.13156236-3.62384067.00068435-.00072997.00136149-.00181533.00203864-.00257411.0908407-.11925438.18610206-.23596347.28510692-.34938768.00067715-.00108535.00136149-.00182493.00237961-.00292949.41370447-.47561522.88830157-.8981826,1.3843416-1.26037361.18405141-.13465103.37253548-.25940902.56272202-.38268786.03776165-.02488628.07586427-.04939798.11362592-.07390967l-10.46165711-6.45963808-.07995595-.04938837h0Z"/>
    </g>
  </g>
</svg>